<svg width="140" height="140" viewBox="0 0 140 140" fill="none" xmlns="http://www.w3.org/2000/svg">
<circle cx="70" cy="70" r="70" fill="#F4F6F9"/>
<g clipPath="url(#clip0_1710_395)">
<path d="M54.4443 43.5556C54.4443 43.5556 54.4443 42.4445 55.5554 42.4445H62.2221C62.2221 42.4445 63.3332 42.4445 63.3332 43.5556V45.7778H54.4443V43.5556Z" fill="#66757F"/>
<path d="M50 49.1111C50 49.1111 50 44.6667 54.4444 44.6667H85.5556C85.5556 44.6667 90 44.6667 90 49.1111V69.1111C90 69.1111 90 73.5555 85.5556 73.5555H54.4444C54.4444 73.5555 50 73.5555 50 69.1111V49.1111Z" fill="#31373D"/>
<path d="M73.3333 70.2222C79.4698 70.2222 84.4444 65.2476 84.4444 59.1111C84.4444 52.9746 79.4698 48 73.3333 48C67.1968 48 62.2222 52.9746 62.2222 59.1111C62.2222 65.2476 67.1968 70.2222 73.3333 70.2222Z" fill="#CCD6DD"/>
<path d="M73.3332 68C78.2424 68 82.2221 64.0203 82.2221 59.1111C82.2221 54.2019 78.2424 50.2222 73.3332 50.2222C68.424 50.2222 64.4443 54.2019 64.4443 59.1111C64.4443 64.0203 68.424 68 73.3332 68Z" fill="#31373D"/>
<path d="M73.3334 64.6667C76.4016 64.6667 78.8889 62.1793 78.8889 59.1111C78.8889 56.0428 76.4016 53.5555 73.3334 53.5555C70.2651 53.5555 67.7778 56.0428 67.7778 59.1111C67.7778 62.1793 70.2651 64.6667 73.3334 64.6667Z" fill="#3B88C3"/>
<path d="M86.111 50.2222C87.0315 50.2222 87.7777 49.476 87.7777 48.5556C87.7777 47.6351 87.0315 46.8889 86.111 46.8889C85.1905 46.8889 84.4443 47.6351 84.4443 48.5556C84.4443 49.476 85.1905 50.2222 86.111 50.2222Z" fill="white"/>
<path d="M63.3332 48.5556C63.3332 49.4767 62.5877 50.2222 61.6666 50.2222H56.111C55.1899 50.2222 54.4443 49.4767 54.4443 48.5556C54.4443 47.6344 55.1899 46.8889 56.111 46.8889H61.6666C62.5877 46.8889 63.3332 47.6344 63.3332 48.5556Z" fill="#F5F8FA"/>
</g>
<path d="M37.2031 95.4551V96.7266H25.9102V95.4551H37.2031ZM26.8398 88.2227V87.0059H36.2188V88.2227H34.4141V92.1602H36.1777V93.3633H26.8809V92.1602H28.6172V88.2227H26.8398ZM30.1348 92.1602H32.9102V88.2227H30.1348V92.1602ZM48.9527 95.5234V96.7812H37.6598V95.5234H42.527V93.5137H38.9996V89.4668H46.109V87.9355H38.9723V86.7051H47.6129V90.6699H40.5172V92.2695H47.9V93.5137H44.0309V95.5234H48.9527ZM59.718 85.8574V92.2285H58.2004V85.8574H59.718ZM49.6145 90.7109C50.0588 90.7109 50.5305 90.7041 51.0227 90.6973V87.8262H49.9426V86.6504H56.6555V87.8262H55.548V90.5127C56.1086 90.4717 56.6555 90.417 57.175 90.3555L57.2434 91.4492C54.7824 91.8389 51.9387 91.9141 49.7785 91.9141L49.6145 90.7109ZM51.4328 93.9375V92.748H59.718V95.9336H52.9641V96.9043H60.1145V98.1074H51.4602V94.8262H58.2141V93.9375H51.4328ZM52.4855 90.6631C53.0187 90.6494 53.5588 90.6289 54.0988 90.6016V87.8262H52.4855V90.6631ZM68.5473 88.8242C68.5336 91.0322 69.641 93.2607 71.5551 94.1836L70.6254 95.4004C69.2855 94.7236 68.3217 93.418 67.7953 91.8457C67.2553 93.5273 66.2436 94.9219 64.8285 95.6328L63.8988 94.416C65.8881 93.4727 67.0229 91.1074 67.0297 88.8242V86.8555H68.5473V88.8242ZM72.2934 98.2168V85.8574H73.8109V90.6973H75.7113V91.9961H73.8109V98.2168H72.2934ZM80.5703 88.373C80.5703 89.9111 81.623 91.415 83.5918 92.0234L82.8125 93.2129C81.4111 92.7617 80.3926 91.832 79.8252 90.6562C79.2715 91.9346 78.2188 92.9531 76.7559 93.459L75.9766 92.2559C77.9658 91.5996 79.0254 90 79.0391 88.373V88.0176H76.373V86.8008H83.168V88.0176H80.5703V88.373ZM78 97.9707V94.0195H79.5312V96.7402H86.5176V97.9707H78ZM84.6445 94.8398V85.8711H86.1758V94.8398H84.6445ZM95.0461 88.4961C95.0393 89.8633 96.0988 91.1416 98.0402 91.668L97.343 92.8438C95.9006 92.4541 94.8684 91.627 94.301 90.5605C93.7609 91.7227 92.7287 92.6387 91.259 93.0762L90.5344 91.8867C92.4826 91.3467 93.5285 89.959 93.5285 88.4961V88.373H90.9445V87.1699H93.5285V85.8027H95.0598V87.1699H97.6301V88.373H95.0461V88.4961ZM92.7355 98.0664V93.6914H100.952V98.0664H92.7355ZM94.2531 96.8359H99.4621V94.9082H94.2531V96.8359ZM97.302 90.4102V89.1797H99.4348V85.8574H100.952V93.1309H99.4348V90.4102H97.302ZM113.632 93.0488V94.252H108.71V98.2168H107.206V94.252H102.339V93.0488H113.632ZM103.706 91.7637V86.3496H105.21V87.8672H110.733V86.3496H112.264V91.7637H103.706ZM105.21 90.5332H110.733V89.0703H105.21V90.5332Z" fill="#707192"/>
<defs>
<clipPath id="clip0_1710_395">
<rect width="40" height="40" fill="white" transform="translate(50 38)"/>
</clipPath>
</defs>
</svg>
