<svg width="98" height="104" viewBox="0 0 98 104" fill="none" xmlns="http://www.w3.org/2000/svg">
<path d="M85.792 71.7867V77.6107C85.7493 78.08 85.6853 78.5707 85.6 79.0827C85.5147 79.552 85.344 80.0213 85.088 80.4907C84.704 81.088 84.3413 81.4933 84 81.7067C83.6587 81.92 83.3813 82.0907 83.168 82.2187C82.9547 82.3467 82.6773 82.4107 82.336 82.4107C81.696 82.4107 81.0987 82.24 80.544 81.8987C80.1173 81.6427 79.776 81.3227 79.52 80.9387C79.264 80.5547 79.0507 80.192 78.88 79.8507C78.752 79.5093 78.6666 79.2107 78.624 78.9547C78.5813 78.656 78.56 78.5067 78.56 78.5067V71.0187H77.152C76.4693 71.0613 75.7227 71.04 74.912 70.9547C74.144 70.8267 73.4826 70.4 72.928 69.6747C72.928 70.2293 72.9066 70.7627 72.864 71.2747C72.864 71.7867 72.864 72.256 72.864 72.6827C72.8213 73.7493 72.8 74.752 72.8 75.6907C72.8427 76.5867 72.6293 77.504 72.16 78.4427C71.904 78.9973 71.4987 79.4453 70.944 79.7867C70.3893 80.128 69.792 80.3413 69.152 80.4267C68.5546 80.4693 67.9786 80.4053 67.424 80.2347C66.8693 80.0213 66.4426 79.6373 66.144 79.0827C65.504 77.9307 65.1626 76.8427 65.12 75.8187C65.12 74.752 65.1413 73.5573 65.184 72.2347H53.024C52.9813 72.2347 52.7253 72.2133 52.256 72.1707C51.8293 72.0853 51.4667 71.7867 51.168 71.2747C50.9547 70.7627 50.848 70.1653 50.848 69.4827C50.848 68.8 50.976 68.224 51.232 67.7547C51.4453 67.328 51.68 67.0933 51.936 67.0507C52.192 66.9653 52.4693 66.88 52.768 66.7947C53.024 66.752 53.2587 66.7093 53.472 66.6667C53.6853 66.5813 53.9627 66.5173 54.304 66.4747C55.2427 66.432 56.3733 66.4107 57.696 66.4107C59.0187 66.368 60.192 66.3467 61.216 66.3467C61.8987 66.3467 62.5387 66.3467 63.136 66.3467C63.776 66.3467 64.4586 66.368 65.184 66.4107C65.184 65.6427 65.1626 64.832 65.12 63.9787C65.12 63.0827 65.0987 62.272 65.056 61.5467C63.9467 61.504 62.816 61.4613 61.664 61.4187C60.512 61.376 59.3813 61.312 58.272 61.2267C57.1627 61.2267 55.9893 61.2693 54.752 61.3547C53.5573 61.44 52.3413 61.3973 51.104 61.2267C50.5067 61.1413 50.0586 60.6933 49.76 59.8827C49.504 59.072 49.376 58.176 49.376 57.1947C49.4186 56.3413 49.696 55.7227 50.208 55.3387C50.7626 54.912 51.3386 54.592 51.936 54.3787C52.6613 54.1227 53.2586 53.9947 53.728 53.9947C54.24 53.952 54.8587 53.9093 55.584 53.8667C56.0533 53.8667 56.5866 53.888 57.184 53.9307C57.824 53.9307 58.3786 53.9307 58.848 53.9307H62.944C63.1573 53.9307 63.3493 53.9307 63.52 53.9307C63.7333 53.888 63.9467 53.888 64.16 53.9307H65.568C65.8666 53.9307 66.1653 53.952 66.464 53.9947C66.7626 53.9947 67.0613 53.9947 67.36 53.9947C67.6587 53.9947 67.9573 53.9947 68.256 53.9947C68.5546 53.9947 68.8533 54.016 69.152 54.0587C69.5786 54.0587 69.8773 54.1013 70.048 54.1867C70.1333 54.2293 70.2187 54.272 70.304 54.3147C70.3893 54.3147 70.496 54.336 70.624 54.3787C70.9226 54.592 71.2 54.8267 71.456 55.0827C71.712 55.296 71.9253 55.5733 72.096 55.9147C72.4373 56.512 72.6293 57.1307 72.672 57.7707C72.7573 58.4107 72.8 59.0507 72.8 59.6907C72.8 60.4587 72.8 61.3333 72.8 62.3147C72.8427 63.2533 72.864 64.2133 72.864 65.1947C73.2906 64.6827 73.9946 64.3413 74.976 64.1707C75.1893 64.0853 75.6587 64.0427 76.384 64.0427C77.152 64 77.8773 63.9573 78.56 63.9147V57.3867C78.5173 57.1733 78.5386 56.704 78.624 55.9787C78.7093 55.2107 78.8586 54.5707 79.072 54.0587C79.5413 53.1627 80.416 52.6507 81.696 52.5227C83.0187 52.352 84.0213 52.672 84.704 53.4827C85.0026 53.824 85.1946 54.1653 85.28 54.5067C85.3653 54.8053 85.472 55.1253 85.6 55.4667C85.728 55.8933 85.7706 56.3413 85.728 56.8107C85.728 57.28 85.728 57.7493 85.728 58.2187L85.792 71.7867ZM85.664 89.7707C87.2427 90.88 88.8 91.9893 90.336 93.0987C91.872 94.208 93.3867 95.36 94.88 96.5547C95.392 96.9813 95.9893 97.408 96.672 97.8347C97.3546 98.304 97.76 98.9013 97.888 99.6267C98.016 100.224 97.9307 100.843 97.632 101.483C97.376 102.123 97.0133 102.635 96.544 103.019C95.8187 103.616 95.1147 103.872 94.432 103.787C93.7493 103.701 93.024 103.488 92.256 103.147C90.6773 102.421 89.1627 101.611 87.712 100.715C86.2613 99.8187 84.8107 98.88 83.36 97.8987C82.6347 97.4293 81.9307 96.9173 81.248 96.3627C80.5653 95.8507 79.8827 95.36 79.2 94.8907C78.7306 94.5493 78.24 94.1653 77.728 93.7387C77.216 93.312 76.6187 93.1413 75.936 93.2267C75.3387 93.2693 74.8693 93.3973 74.528 93.6107C74.1867 93.824 73.8026 94.1013 73.376 94.4427C72.9066 94.784 72.3946 95.168 71.84 95.5947C71.328 96.0213 70.88 96.4053 70.496 96.7467C69.3867 97.6853 68.1706 98.624 66.848 99.5627C65.568 100.544 64.3093 101.355 63.072 101.995C62.6026 102.251 62.0693 102.507 61.472 102.763C60.8747 103.019 60.2773 103.211 59.68 103.339C59.0826 103.509 58.464 103.573 57.824 103.531C57.2266 103.531 56.672 103.403 56.16 103.147C55.4773 102.805 54.9867 102.293 54.688 101.611C54.3893 100.928 54.3466 100.224 54.56 99.4987C54.7733 98.7733 55.2427 98.1333 55.968 97.5787C56.736 97.024 57.376 96.5333 57.888 96.1067C59.5093 94.8693 61.2587 93.5893 63.136 92.2667C65.0133 90.9013 66.784 89.6213 68.448 88.4267C69.1733 87.872 69.8986 87.4027 70.624 87.0187C71.3493 86.592 72.0747 86.08 72.8 85.4827C73.056 85.2693 73.3547 85.0347 73.696 84.7787C74.0373 84.48 74.4 84.224 74.784 84.0107C75.168 83.7547 75.552 83.5627 75.936 83.4347C76.32 83.3067 76.704 83.2853 77.088 83.3707C77.6853 83.5413 78.1973 83.84 78.624 84.2667C79.0506 84.6933 79.4987 85.0773 79.968 85.4187L85.664 89.7707ZM88.672 57.9627C88.672 57.4933 88.672 57.024 88.672 56.5547C88.672 56.0853 88.736 55.6373 88.864 55.2107C89.12 54.4853 89.504 53.8453 90.016 53.2907C90.3573 52.864 90.7626 52.5653 91.232 52.3947C91.7013 52.224 92.2987 52.1813 93.024 52.2667C94.176 52.4373 94.9653 52.992 95.392 53.9307C95.648 54.4427 95.7973 55.0613 95.84 55.7867C95.8826 56.4693 95.8826 56.9173 95.84 57.1307V78.5707C95.84 78.6133 95.8187 78.7627 95.776 79.0187C95.776 79.2747 95.712 79.5947 95.584 79.9787C95.4986 80.32 95.328 80.6827 95.072 81.0667C94.8586 81.4507 94.5387 81.7707 94.112 82.0267C93.8133 82.1973 93.5573 82.3253 93.344 82.4107C93.1733 82.4533 92.9173 82.4747 92.576 82.4747C91.8933 82.4747 91.1893 82.2613 90.464 81.8347C90.2506 81.664 90.0587 81.472 89.888 81.2587C89.7173 81.0453 89.5467 80.8107 89.376 80.5547C88.736 79.36 88.4373 78.0587 88.48 76.6507C88.5653 75.2 88.608 73.8133 88.608 72.4907C88.608 72.448 88.608 72.0853 88.608 71.4027C88.608 70.6773 88.608 69.7813 88.608 68.7147C88.608 67.648 88.608 66.5173 88.608 65.3227C88.608 64.0853 88.608 62.9333 88.608 61.8667C88.608 60.8 88.608 59.904 88.608 59.1787C88.6507 58.4533 88.672 58.048 88.672 57.9627Z" fill="black"/>
<path d="M18.232 53.376C18.2746 53.376 18.488 53.376 18.872 53.376C19.2986 53.376 19.7466 53.376 20.216 53.376C20.728 53.376 21.176 53.3973 21.56 53.44C21.9866 53.44 22.2 53.44 22.2 53.44C23.5653 53.44 24.6746 53.696 25.528 54.208C26.3813 54.6773 27.0427 55.2747 27.512 56C28.024 56.6827 28.3653 57.4293 28.536 58.24C28.7066 59.0507 28.792 59.776 28.792 60.416V92.864C28.792 92.9067 28.7706 93.1627 28.728 93.632C28.728 94.0587 28.6853 94.5707 28.6 95.168C28.5147 95.7653 28.3866 96.384 28.216 97.024C28.088 97.664 27.896 98.1973 27.64 98.624C27.2986 99.136 26.7866 99.5413 26.104 99.84C25.464 100.139 24.8026 100.352 24.12 100.48C23.48 100.651 22.8826 100.736 22.328 100.736C21.7733 100.779 21.4746 100.8 21.432 100.8H9.84798C9.46398 100.8 8.86664 100.757 8.05598 100.672C7.28798 100.629 6.47731 100.48 5.62398 100.224C4.77064 100.011 3.95998 99.6693 3.19198 99.2C2.46665 98.7307 1.93331 98.0907 1.59197 97.28C0.994639 95.872 0.653311 94.4 0.567978 92.864C0.525311 91.328 0.525311 89.8133 0.567978 88.32V65.28C0.567978 65.152 0.525313 64.7253 0.43998 64C0.397313 63.232 0.375977 62.3787 0.375977 61.44C0.375977 60.4587 0.439978 59.4773 0.567978 58.496C0.695978 57.472 0.930639 56.6187 1.27197 55.936C1.69864 55.0827 2.27464 54.464 2.99998 54.08C3.72531 53.696 4.51464 53.4613 5.36797 53.376C6.26397 53.248 7.15998 53.2267 8.05598 53.312C8.99464 53.3547 9.84797 53.376 10.616 53.376C11.9813 53.376 13.2613 53.3973 14.456 53.44C15.6933 53.44 16.952 53.4187 18.232 53.376ZM45.944 71.744C46.1573 71.744 46.3493 71.7653 46.52 71.808C46.7333 71.8507 46.9466 71.872 47.16 71.872C47.3733 71.9147 47.608 71.9573 47.864 72C48.12 72 48.376 72.0213 48.632 72.064C49.1013 72.1493 49.5706 72.32 50.04 72.576C50.5093 72.7893 50.8507 73.1307 51.064 73.6C51.3627 74.0693 51.512 74.624 51.512 75.264C51.512 75.6053 51.4906 75.9253 51.448 76.224C51.448 76.48 51.4053 76.7787 51.32 77.12C51.2346 77.4613 51.128 77.824 51 78.208C50.9146 78.592 50.7226 78.8907 50.424 79.104C49.8266 79.5307 49.2506 79.808 48.696 79.936C48.0133 80.0213 47.1813 80.0427 46.2 80C45.2186 79.9573 44.3866 79.9573 43.704 80C43.6613 80 43.6186 80.0213 43.576 80.064H43.512L43.448 80.128V80.32C43.448 80.832 43.448 81.4507 43.448 82.176C43.448 82.8587 43.448 83.584 43.448 84.352C43.448 85.0773 43.448 85.8027 43.448 86.528C43.448 87.2107 43.448 87.8293 43.448 88.384C43.5333 90.6027 43.5333 92.7787 43.448 94.912V95.808C43.448 96.3627 43.4266 96.96 43.384 97.6C43.384 98.2827 43.3413 98.944 43.256 99.584C43.1706 100.224 43.0213 100.821 42.808 101.376C42.5946 101.973 42.296 102.464 41.912 102.848C41.4 103.445 40.7173 103.744 39.864 103.744C39.864 103.744 39.8213 103.723 39.736 103.68C38.712 103.637 37.88 103.339 37.24 102.784C36.6427 102.229 36.1733 101.547 35.832 100.736C35.5333 99.9253 35.3413 99.072 35.256 98.176C35.1706 97.3227 35.128 96.5547 35.128 95.872V57.856C35.128 57.8133 35.128 57.6213 35.128 57.28C35.128 56.896 35.1706 56.4693 35.256 56C35.3413 55.488 35.4693 54.976 35.64 54.464C35.8533 53.9093 36.1306 53.4613 36.472 53.12C36.7706 52.8213 37.1973 52.608 37.752 52.48C38.3493 52.3093 38.8826 52.224 39.352 52.224C40.2906 52.224 41.08 52.544 41.72 53.184C42.3173 53.7813 42.6586 54.4213 42.744 55.104C42.872 55.744 42.9786 56.4267 43.064 57.152C43.1066 57.3227 43.128 57.5787 43.128 57.92C43.2133 58.6453 43.256 59.392 43.256 60.16C43.2986 60.928 43.3413 61.696 43.384 62.464C43.384 62.9333 43.384 63.4027 43.384 63.872C43.4266 64.2987 43.448 64.7467 43.448 65.216C43.4053 65.472 43.384 65.728 43.384 65.984C43.4266 66.1973 43.448 66.4107 43.448 66.624V70.208C43.448 70.4213 43.448 70.656 43.448 70.912C43.448 71.168 43.4907 71.4027 43.576 71.616C43.576 71.6587 43.7893 71.68 44.216 71.68C44.6427 71.68 44.8773 71.68 44.92 71.68C45.304 71.7653 45.6026 71.7867 45.816 71.744H45.944ZM8.75998 91.072C8.80265 91.4133 8.93064 91.7547 9.14397 92.096C9.39997 92.4373 9.76265 92.6507 10.232 92.736L16.184 92.8C16.696 92.7573 17.208 92.7147 17.72 92.672C18.232 92.5867 18.7013 92.416 19.128 92.16C19.5973 91.904 19.8533 91.456 19.896 90.816C19.9386 90.176 19.9386 89.5573 19.896 88.96V88.256C19.896 87.7013 19.896 87.232 19.896 86.848C19.896 86.4213 19.896 86.016 19.896 85.632C19.896 85.248 19.896 84.864 19.896 84.48C19.896 84.0533 19.896 83.5627 19.896 83.008V67.584C19.896 67.0293 19.8746 66.496 19.832 65.984C19.7893 65.5147 19.7466 65.0453 19.704 64.576C19.704 64.1067 19.6826 63.7013 19.64 63.36C19.5546 62.5493 19.256 62.0587 18.744 61.888C18.2746 61.6747 17.912 61.568 17.656 61.568H17.592L12.152 61.44C11.128 61.44 10.3813 61.5893 9.91198 61.888C9.44265 62.1867 9.10131 62.6347 8.88798 63.232C8.84531 63.4453 8.80265 63.7653 8.75998 64.192C8.75998 64.576 8.75998 65.0027 8.75998 65.472C8.75998 65.8987 8.75998 66.3467 8.75998 66.816C8.75998 67.2427 8.75998 67.584 8.75998 67.84V91.072Z" fill="black"/>
<path d="M62.245 0.32C62.7996 0.32 63.333 0.341333 63.845 0.383999C64.357 0.426668 64.869 0.490668 65.381 0.576C67.0023 0.831999 68.4316 1.57867 69.669 2.816C70.693 3.92533 71.525 5.20533 72.165 6.656C72.8476 8.064 73.381 9.55733 73.765 11.136C74.149 12.7147 74.4263 14.336 74.597 16C74.7676 17.6213 74.8956 19.2 74.981 20.736C75.0663 22.6987 75.0876 24.6613 75.045 26.624C75.0023 28.5867 74.8743 30.528 74.661 32.448C74.4476 34.4533 74.1276 36.48 73.701 38.528C73.317 40.5333 72.5916 42.3467 71.525 43.968C70.629 45.3333 69.5196 46.4427 68.197 47.296C66.8743 48.192 65.4876 48.7893 64.037 49.088C62.7143 49.344 61.3703 49.3867 60.005 49.216C58.6396 49.0453 57.3383 48.5973 56.101 47.872C54.949 47.1893 53.9676 46.336 53.157 45.312C52.389 44.288 51.7063 43.0933 51.109 41.728C50.2556 39.68 49.765 37.568 49.637 35.392C49.4663 33.6 49.3383 31.808 49.253 30.016C49.2103 28.224 49.189 26.432 49.189 24.64C49.189 23.4027 49.189 22.208 49.189 21.056C49.2316 19.8613 49.317 18.6667 49.445 17.472C49.5303 16.4907 49.637 15.5307 49.765 14.592C49.893 13.6107 50.0423 12.6507 50.213 11.712C50.3836 10.944 50.533 10.2187 50.661 9.536C50.789 8.85333 51.0236 8.14933 51.365 7.424C51.7063 6.69867 52.069 6.016 52.453 5.376C52.8796 4.736 53.3703 4.16 53.925 3.648C54.8636 2.70934 55.909 1.984 57.061 1.472C58.213 0.960002 59.4076 0.618669 60.645 0.448002C60.901 0.405333 61.157 0.383999 61.413 0.383999C61.7116 0.383999 61.989 0.362666 62.245 0.32ZM85.221 28.288C84.6236 28.2027 83.8343 28.16 82.853 28.16C81.8716 28.1173 81.0823 28.0533 80.485 27.968C78.9916 27.8827 77.925 27.328 77.285 26.304C76.645 25.28 76.5596 23.9573 77.029 22.336C77.1143 21.9947 77.285 21.632 77.541 21.248C77.8396 20.864 78.117 20.5653 78.373 20.352C78.9703 19.9253 79.5676 19.648 80.165 19.52C80.8476 19.4347 81.6583 19.4133 82.597 19.456C83.5783 19.4987 84.4316 19.4773 85.157 19.392H85.349V19.136C85.349 18.624 85.349 18.24 85.349 17.984C85.3916 17.728 85.413 17.4933 85.413 17.28C85.413 17.0667 85.3916 16.832 85.349 16.576C85.349 16.32 85.349 15.9147 85.349 15.36C85.349 14.2507 85.3276 13.1627 85.285 12.096C85.285 10.9867 85.3063 9.89867 85.349 8.832V7.936C85.349 7.38133 85.349 6.784 85.349 6.144C85.3916 5.46134 85.4556 4.8 85.541 4.16C85.6263 3.47733 85.7756 2.85867 85.989 2.304C86.2023 1.70667 86.501 1.216 86.885 0.832001C87.525 0.277334 88.2076 0 88.933 0H89.061C90.085 0.0426661 90.8956 0.362666 91.493 0.959999C92.133 1.51467 92.6023 2.19733 92.901 3.008C93.2423 3.81867 93.4556 4.672 93.541 5.568C93.6263 6.42133 93.669 7.18933 93.669 7.872V46.272C93.669 46.3147 93.669 46.5067 93.669 46.848C93.669 47.232 93.6263 47.68 93.541 48.192C93.4556 48.704 93.3276 49.216 93.157 49.728C92.9863 50.24 92.709 50.6667 92.325 51.008C92.0263 51.3067 91.5996 51.5413 91.045 51.712C90.4903 51.8827 89.9783 51.968 89.509 51.968C88.485 51.968 87.6743 51.6267 87.077 50.944C86.5223 50.3467 86.181 49.728 86.053 49.088C85.925 48.448 85.8183 47.7653 85.733 47.04C85.733 46.912 85.7116 46.784 85.669 46.656C85.669 46.528 85.669 46.3787 85.669 46.208C85.5836 45.5253 85.541 44.8 85.541 44.032C85.541 43.264 85.5196 42.496 85.477 41.728C85.4343 41.2587 85.413 40.8107 85.413 40.384C85.413 39.9147 85.413 39.4453 85.413 38.976V37.504C85.413 37.0773 85.413 36.5227 85.413 35.84C85.413 35.1147 85.3916 34.368 85.349 33.6C85.349 32.832 85.349 32.1067 85.349 31.424C85.349 30.7413 85.349 30.1653 85.349 29.696C85.349 29.4827 85.349 29.248 85.349 28.992C85.349 28.736 85.3063 28.5013 85.221 28.288ZM62.053 40.576C62.8636 40.576 63.653 40.32 64.421 39.808C65.1463 39.296 65.6583 38.6133 65.957 37.76C66.2556 36.9067 66.5116 35.968 66.725 34.944C67.0663 32.9813 67.2583 30.8907 67.301 28.672C67.3436 26.4533 67.3223 24.32 67.237 22.272C67.237 21.4613 67.2156 20.608 67.173 19.712C67.1303 18.7733 67.045 17.856 66.917 16.96C66.8316 16.064 66.6823 15.2107 66.469 14.4C66.2556 13.5467 65.957 12.8 65.573 12.16C65.1463 11.4347 64.6343 10.88 64.037 10.496C63.4396 10.112 62.7996 9.96267 62.117 10.048C61.3916 10.1333 60.7303 10.3893 60.133 10.816C59.5356 11.2427 59.045 11.8827 58.661 12.736L58.085 14.08C57.829 14.8907 57.637 15.744 57.509 16.64C57.381 17.4933 57.2743 18.3467 57.189 19.2C57.1036 20.0533 57.0396 20.928 56.997 21.824C56.9543 22.72 56.933 23.5947 56.933 24.448C56.9756 25.3013 56.9543 26.1333 56.869 26.944C56.8263 27.7547 56.8476 28.5867 56.933 29.44C57.0183 30.5493 57.125 31.744 57.253 33.024C57.4236 34.304 57.6796 35.52 58.021 36.672C58.3623 37.7813 58.853 38.72 59.493 39.488C60.133 40.2133 60.9863 40.576 62.053 40.576Z" fill="black"/>
<path d="M22.464 1.85601C23.8293 1.85601 24.9387 2.09068 25.792 2.56002C26.6453 3.02935 27.3067 3.64802 27.776 4.41602C28.2453 5.18402 28.5653 6.08002 28.736 7.10402C28.9493 8.08535 29.056 9.08802 29.056 10.112V41.28C29.056 41.3227 29.0347 41.5787 28.992 42.048C28.992 42.4747 28.9493 42.9867 28.864 43.584C28.7787 44.1814 28.6507 44.8 28.48 45.44C28.352 46.08 28.16 46.6134 27.904 47.04C27.5627 47.552 27.0507 47.9574 26.368 48.256C25.728 48.5547 25.0667 48.768 24.384 48.896C23.744 49.0667 23.1467 49.152 22.592 49.152C22.0373 49.1947 21.7387 49.216 21.696 49.216H9.472C9.088 49.216 8.49067 49.1734 7.68 49.088C6.912 49.0453 6.10133 48.896 5.248 48.64C4.39467 48.4267 3.584 48.0854 2.816 47.616C2.09067 47.1467 1.55733 46.5067 1.216 45.696C0.618667 44.288 0.277333 42.816 0.192 41.28C0.149333 39.744 0.149333 38.2294 0.192 36.736V13.696C0.192 13.568 0.149333 13.1414 0.0640001 12.416C0.0213334 11.648 0 10.7947 0 9.85602C0 8.87468 0.0640001 7.89335 0.192 6.91202C0.32 5.88802 0.554667 5.03468 0.896 4.35202C1.32267 3.49868 1.89867 2.88002 2.624 2.49602C3.34933 2.11202 4.13867 1.87735 4.992 1.79202C5.888 1.66402 6.784 1.64268 7.68 1.72802C8.61867 1.77068 9.472 1.79202 10.24 1.79202H15.616C15.9147 1.87735 16.4267 1.92002 17.152 1.92002C17.8773 1.87735 18.432 1.85601 18.816 1.85601H22.464ZM44.48 46.208C44.3947 46.72 44.3307 47.2107 44.288 47.68C44.2453 48.192 44.1387 48.704 43.968 49.216C43.8827 49.3867 43.8187 49.536 43.776 49.664C43.7333 49.792 43.6693 49.9414 43.584 50.112C43.2853 50.7094 42.9013 51.1787 42.432 51.52C41.4507 52.1174 40.3627 52.2667 39.168 51.968C38.4853 51.84 37.9307 51.584 37.504 51.2C37.12 50.8587 36.8213 50.4107 36.608 49.856C36.4373 49.344 36.288 48.832 36.16 48.32C36.0747 47.808 36.032 47.36 36.032 46.976C36.032 46.592 36.032 46.3787 36.032 46.336V7.55202C36.032 7.04002 36.032 6.48535 36.032 5.88802C36.032 5.29068 36.0747 4.69335 36.16 4.09602C36.2453 3.49868 36.3733 2.94402 36.544 2.43201C36.7147 1.92002 36.9493 1.51468 37.248 1.21601C37.7173 0.746683 38.208 0.469349 38.72 0.384014C39.232 0.256016 39.7867 0.192017 40.384 0.192017C41.1093 0.192017 41.7707 0.40535 42.368 0.832016C43.008 1.21602 43.456 1.77068 43.712 2.49602C44.096 3.39202 44.3093 4.33068 44.352 5.31202C44.3947 6.29335 44.4373 7.27468 44.48 8.25602V8.57602C44.5653 11.8614 44.5867 15.232 44.544 18.688C44.5013 22.144 44.48 25.408 44.48 28.48V43.904C44.48 44.288 44.48 44.672 44.48 45.056C44.5227 45.44 44.5227 45.824 44.48 46.208ZM8.384 38.848C8.42667 39.1894 8.55467 39.6373 8.768 40.192C9.024 40.7467 9.38667 41.0667 9.856 41.152C10.1547 41.2374 10.3467 41.28 10.432 41.28C10.56 41.28 10.816 41.28 11.2 41.28C11.3707 41.28 11.712 41.28 12.224 41.28C12.736 41.28 13.2693 41.28 13.824 41.28C14.3787 41.28 14.8907 41.28 15.36 41.28C15.872 41.2374 16.2347 41.216 16.448 41.216C16.96 41.1734 17.472 41.1307 17.984 41.088C18.496 41.0027 18.9653 40.832 19.392 40.576C19.8613 40.32 20.1173 39.872 20.16 39.232C20.2027 38.592 20.2027 37.9734 20.16 37.376V36.672C20.16 35.9467 20.16 35.1147 20.16 34.176C20.16 33.2374 20.16 32 20.16 30.464C20.16 28.928 20.16 27.008 20.16 24.704C20.16 22.3574 20.16 19.456 20.16 16C20.16 15.4453 20.1387 14.912 20.096 14.4C20.0533 13.9307 20.0107 13.4613 19.968 12.992C19.968 12.5227 19.9467 12.1174 19.904 11.776C19.8187 10.9654 19.52 10.4747 19.008 10.304C18.5387 10.0907 18.176 9.98402 17.92 9.98402H17.856L11.136 9.85602C10.112 9.85602 9.472 10.0054 9.216 10.304C9.00267 10.56 8.81067 10.9867 8.64 11.584C8.55467 12.0107 8.46933 12.5014 8.384 13.056C8.34133 13.6107 8.34133 14.1653 8.384 14.72V38.848Z" fill="black"/>
</svg>
