<svg width="240" height="191" viewBox="0 0 240 191" fill="none" xmlns="http://www.w3.org/2000/svg">
<path d="M37.8107 47.4556L2.00025 145.844C-4.23672 162.98 4.59864 181.928 21.7346 188.164C38.8705 194.401 57.818 185.566 64.055 168.43L72.9484 143.996L37.8107 47.4556Z" fill="#344FFF"/>
<path d="M130.773 44.3207C124.536 27.1847 133.371 8.23723 150.507 2.00025C167.643 -4.23672 186.591 4.59864 192.828 21.7346L238 145.844C244.237 162.98 235.401 181.927 218.265 188.164C201.129 194.401 182.182 185.566 175.945 168.43L130.773 44.3207Z" fill="#131B53"/>
<path d="M48.2263 44.3207C41.9893 27.1847 50.8247 8.23723 67.9606 2.00025C85.0965 -4.23672 104.044 4.59864 110.281 21.7346L155.453 145.844C161.69 162.98 152.855 181.927 135.719 188.164C118.583 194.401 99.6354 185.566 93.3984 168.43L48.2263 44.3207Z" fill="#2036E2"/>
</svg>
